<mxfile host="drawio-plugin" modified="2024-06-02T13:51:24.435Z" agent="Mozilla/5.0 (X11; Linux x86_64) AppleWebKit/537.36 (KHTML, like Gecko) Chrome/122.0.0.0 Safari/537.36" etag="aw32OPqgioKSkKuy6qtq" version="22.1.22" type="embed" pages="2">
  <diagram name="Page-1" id="GQfNGS07O6GRNznr4gRm">
    <mxGraphModel dx="702" dy="571" grid="1" gridSize="10" guides="1" tooltips="1" connect="1" arrows="1" fold="1" page="0" pageScale="1" pageWidth="850" pageHeight="1100" math="0" shadow="0">
      <root>
        <mxCell id="0" />
        <mxCell id="1" parent="0" />
        <mxCell id="FGtR0-8Av16mA7pavE6J-3" value="&lt;b&gt;&lt;font style=&quot;font-size: 13px;&quot;&gt;R&lt;/font&gt;&lt;/b&gt;" style="rounded=0;orthogonalLoop=1;jettySize=auto;html=1;" parent="1" source="FGtR0-8Av16mA7pavE6J-1" target="FGtR0-8Av16mA7pavE6J-2" edge="1">
          <mxGeometry relative="1" as="geometry">
            <mxPoint x="240" y="70" as="targetPoint" />
          </mxGeometry>
        </mxCell>
        <mxCell id="FGtR0-8Av16mA7pavE6J-12" value="&lt;b&gt;&lt;font style=&quot;font-size: 13px;&quot;&gt;T&lt;/font&gt;&lt;/b&gt;&lt;div&gt;- a: 2&lt;/div&gt;&lt;div&gt;- b: &quot;test&quot;&lt;/div&gt;" style="edgeStyle=none;rounded=0;orthogonalLoop=1;jettySize=auto;html=1;" parent="1" source="FGtR0-8Av16mA7pavE6J-1" target="FGtR0-8Av16mA7pavE6J-10" edge="1">
          <mxGeometry relative="1" as="geometry" />
        </mxCell>
        <mxCell id="FGtR0-8Av16mA7pavE6J-14" style="edgeStyle=none;rounded=0;orthogonalLoop=1;jettySize=auto;html=1;" parent="1" source="FGtR0-8Av16mA7pavE6J-1" target="FGtR0-8Av16mA7pavE6J-13" edge="1">
          <mxGeometry relative="1" as="geometry" />
        </mxCell>
        <mxCell id="FGtR0-8Av16mA7pavE6J-1" value="&lt;b&gt;&lt;font style=&quot;font-size: 14px;&quot;&gt;A&lt;/font&gt;&lt;/b&gt;" style="ellipse;whiteSpace=wrap;html=1;aspect=fixed;" parent="1" vertex="1">
          <mxGeometry x="40" y="40" width="120" height="120" as="geometry" />
        </mxCell>
        <mxCell id="FGtR0-8Av16mA7pavE6J-11" value="&lt;b&gt;&lt;font style=&quot;font-size: 13px;&quot;&gt;S&lt;/font&gt;&lt;/b&gt;" style="edgeStyle=none;rounded=0;orthogonalLoop=1;jettySize=auto;html=1;" parent="1" source="FGtR0-8Av16mA7pavE6J-13" edge="1">
          <mxGeometry relative="1" as="geometry">
            <mxPoint x="100" y="380" as="targetPoint" />
          </mxGeometry>
        </mxCell>
        <mxCell id="FGtR0-8Av16mA7pavE6J-2" value="" style="ellipse;whiteSpace=wrap;html=1;aspect=fixed;" parent="1" vertex="1">
          <mxGeometry x="280" y="40" width="120" height="120" as="geometry" />
        </mxCell>
        <mxCell id="FGtR0-8Av16mA7pavE6J-10" value="&lt;span style=&quot;font-size: 14px;&quot;&gt;&lt;b&gt;B, C&lt;/b&gt;&lt;/span&gt;&lt;br&gt;&lt;div&gt;- a: 2&lt;/div&gt;&lt;div&gt;- b: &quot;test&quot;&lt;/div&gt;" style="ellipse;whiteSpace=wrap;html=1;aspect=fixed;" parent="1" vertex="1">
          <mxGeometry x="280" y="240" width="120" height="120" as="geometry" />
        </mxCell>
        <mxCell id="FGtR0-8Av16mA7pavE6J-13" value="&lt;b&gt;&lt;font style=&quot;font-size: 14px;&quot;&gt;D&lt;/font&gt;&lt;/b&gt;&lt;div&gt;* c: true&lt;/div&gt;" style="rounded=0;whiteSpace=wrap;html=1;" parent="1" vertex="1">
          <mxGeometry x="30" y="260" width="140" height="80" as="geometry" />
        </mxCell>
      </root>
    </mxGraphModel>
  </diagram>
  <diagram id="Sdj1fGHO9VFTpiNvxVA9" name="Page-2">
    <mxGraphModel dx="702" dy="571" grid="1" gridSize="10" guides="1" tooltips="1" connect="1" arrows="1" fold="1" page="0" pageScale="1" pageWidth="850" pageHeight="1100" math="0" shadow="0">
      <root>
        <mxCell id="0" />
        <mxCell id="1" parent="0" />
        <mxCell id="1-VsqYT4SuquwrnNaygr-1" value="&lt;b&gt;&lt;font style=&quot;font-size: 14px;&quot;&gt;A&lt;/font&gt;&lt;/b&gt;" style="ellipse;whiteSpace=wrap;html=1;aspect=fixed;" parent="1" vertex="1">
          <mxGeometry x="40" y="40" width="120" height="120" as="geometry" />
        </mxCell>
      </root>
    </mxGraphModel>
  </diagram>
</mxfile>
